<?xml version="1.0" encoding="utf-8"?>
<!-- Generator: Adobe Illustrator 26.2.1, SVG Export Plug-In . SVG Version: 6.00 Build 0)  -->
<svg version="1.1" id="Capa_1" xmlns="http://www.w3.org/2000/svg" xmlns:xlink="http://www.w3.org/1999/xlink" x="0px" y="0px"
	 viewBox="0 0 400 400" style="enable-background:new 0 0 400 400;" xml:space="preserve">
<style type="text/css">
	.st0{fill:#F7F5FF;}
	.st1{fill:#8758E7;}
	.st2{fill:#FC907E;}
	.st3{fill:#FFFFFF;}
</style>
<g>
	<g>
		<path class="st0" d="M371.6,200c0,15.2-2,30-5.7,44.1c-19.4,73.4-86.3,127.5-165.9,127.5c-53.5,0-101.3-24.5-132.8-62.8
			C43,279.1,28.4,241.3,28.4,200c0-94.8,76.8-171.6,171.6-171.6S371.6,105.2,371.6,200z"/>
	</g>
	<g>
		<path class="st1" d="M365.9,244.1c-19.4,73.4-86.3,127.5-165.9,127.5c-53.5,0-101.3-24.5-132.8-62.8c50.2-61.4,104.4-68,104.4-68
			s-1.3-9.3,0-11.8c0.9-1.8,4.3-3.4,6.2-4.2c0.7-0.3,1.2-0.5,1.2-0.5s2.7-0.5,7-1.1c8.6-1.4,23.4-3.5,34.9-4.4
			c3.5-0.3,6.7-0.4,9.3-0.4c2.8,0,5,0.3,6.2,0.8c1.4,0.7,3.1,5.1,3.1,5.1s21.2-3.3,50.6,0C302.3,225.8,333,231.4,365.9,244.1z"/>
	</g>
	<g>
		<g>
			<g>
				<g>
					<path class="st2" d="M171,147.8c0,0-30-9.6-30.2,12.9c-0.2,26.1,30.8,23.5,30.8,23.5L171,147.8z"/>
				</g>
			</g>
		</g>
	</g>
	<g>
		<path d="M158.6,172.6c-0.6,0-1.1-0.3-1.5-0.8L146,156.2c-0.6-0.8-0.4-2,0.4-2.6c0.8-0.6,2-0.4,2.6,0.4l11.2,15.6
			c0.6,0.8,0.4,2-0.4,2.6C159.4,172.5,159,172.6,158.6,172.6z"/>
	</g>
	<g>
		<path d="M147,168.7c-0.9,0-1.7-0.7-1.8-1.6c-0.1-1,0.6-1.9,1.6-2l8.2-0.9c1-0.1,1.9,0.6,2,1.6c0.1,1-0.6,1.9-1.6,2l-8.2,0.9
			C147.1,168.7,147,168.7,147,168.7z"/>
	</g>
	<g>
		<g>
			<g>
				<g>
					<path class="st2" d="M228.7,204.5l3.1,30.3c0,0-11.1,7.4-25.7,9c-19.7,2.2-27.5-8.9-27.5-8.9l-3.2-35.5L228.7,204.5z"/>
				</g>
			</g>
		</g>
	</g>
	<g>
		<g>
			<g>
				<g>
					<path d="M228.7,204.4c0,0-7.2,25.4-29.9,24.2c-18.3-1-25.9-26.2-25.9-26.2L228.7,204.4z"/>
				</g>
			</g>
		</g>
	</g>
	<g>
		<g>
			<g>
				<g>
					<path class="st2" d="M159.5,123.9c0,0-7.5,56.6,10.7,79.7c19.5,24.8,46.2,14.3,55.7,5.5c12.9-11.9,14.3-27,14.3-27
						s19.4,2,24.3-14.1c5.1-16.9-7.9-29-17.5-28.9c-9.6,0.1-10.5,1.9-10.5,1.9l1.2-17.7C237.6,123.4,173.7,64.4,159.5,123.9z"/>
				</g>
			</g>
		</g>
	</g>
	<g>
		<path d="M241.8,166c-0.5,0-0.9-0.2-1.3-0.5c-0.7-0.7-0.7-1.9,0-2.6l13.5-14c0.7-0.7,1.9-0.7,2.6,0c0.7,0.7,0.7,1.9,0,2.6l-13.5,14
			C242.7,165.8,242.2,166,241.8,166z"/>
	</g>
	<g>
		<path d="M255.5,167.1c-0.3,0-0.7-0.1-1-0.3l-9.3-5.7c-0.9-0.5-1.1-1.7-0.6-2.5c0.5-0.9,1.7-1.1,2.5-0.6l9.3,5.7
			c0.9,0.5,1.1,1.7,0.6,2.5C256.8,166.8,256.2,167.1,255.5,167.1z"/>
	</g>
	<g>
		<path d="M211.7,153.4c-1,0-1.8-0.8-1.8-1.8l-0.3-9.4c0-1,0.8-1.9,1.8-1.9c1-0.1,1.9,0.8,1.9,1.8l0.3,9.4
			C213.6,152.5,212.8,153.3,211.7,153.4C211.7,153.4,211.7,153.4,211.7,153.4z"/>
	</g>
	<g>
		<path d="M175.8,154.7c-1,0-1.8-0.8-1.8-1.8l-0.3-9.4c0-1,0.8-1.9,1.8-1.9c1-0.1,1.9,0.8,1.9,1.8l0.3,9.4
			C177.7,153.9,176.9,154.7,175.8,154.7C175.8,154.7,175.8,154.7,175.8,154.7z"/>
	</g>
	<g>
		<path d="M194.6,178c-0.8,0-1.5-0.5-1.8-1.3c-4.3-14.5-0.7-26.9-0.5-27.4c0.3-1,1.3-1.5,2.3-1.2c1,0.3,1.5,1.3,1.2,2.3
			c0,0.1-3.4,11.9,0.5,25.3c0.3,1-0.3,2-1.2,2.3C194.9,177.9,194.7,178,194.6,178z"/>
	</g>
	<g>
		<path d="M169.4,135.6c-0.5,0-0.9-0.2-1.3-0.5c-0.7-0.7-0.8-1.9-0.1-2.6c3.7-3.9,10.5-4.5,10.8-4.5c1-0.1,1.9,0.7,2,1.7
			c0.1,1-0.7,1.9-1.7,2c-0.1,0-5.6,0.5-8.4,3.4C170.4,135.4,169.9,135.6,169.4,135.6z"/>
	</g>
	<g>
		<path d="M215.5,134.8c-0.3,0-0.6-0.1-0.9-0.2c-3.4-2-9-0.9-9-0.9c-1,0.2-2-0.4-2.2-1.4c-0.2-1,0.4-2,1.4-2.2
			c0.3-0.1,6.9-1.4,11.6,1.3c0.9,0.5,1.2,1.6,0.7,2.5C216.8,134.5,216.2,134.8,215.5,134.8z"/>
	</g>
	<g>
		<path d="M240.8,140.7c0,0-4.4,17.7-6.7,17.2c-2.3-0.5-1.1-27.8,5.3-29.5C245.8,126.7,240.8,140.7,240.8,140.7z"/>
	</g>
	<g>
		<path d="M197.3,194c-1,0-1.8-0.8-1.8-1.8c0-1,0.7-1.9,1.8-1.9c0.4,0,9.4-0.5,12.9-8.2c0.4-0.9,1.5-1.3,2.4-0.9
			c0.9,0.4,1.3,1.5,0.9,2.4C209,193.4,197.9,194,197.3,194C197.4,194,197.4,194,197.3,194z"/>
	</g>
	<g>
		<path d="M237.9,138.5c0,0-19.3-0.8-32.7-10.2c-11.3-8-16-19.8-16-19.8s-8.3-0.7-19.8,7.1c-11.5,7.8-11.4,30.2-11.4,30.2
			s-23.5-37-13.7-50.9c9.8-13.9,27.3-3.5,27.3-3.5s-4.1-24.7,30.7-16.6c34.8,8.1,44,37.5,44,37.5s11.7-1.5,13.6,9.3
			c1.9,10.8-2,22.1-2,22.1s-5.3-4.6-13-1.4c-7.7,3.3-7.7,3.3-7.7,3.3L237.9,138.5z"/>
	</g>
	<g>
		<path class="st1" d="M179,224.4c0,0,6.7,6.3,22.2,6.7s29.1-12.1,29.1-12.1l10,18.3l-24.7,15.1l-41.3-3.5v-18.5L179,224.4z"/>
	</g>
	<g>
		<path class="st3" d="M196.1,254.2c-16.7,0-25.9-12.2-26-12.4c-0.6-0.8-0.4-2,0.4-2.6c0.8-0.6,2-0.4,2.6,0.4
			c0.5,0.6,11.9,15.8,33.1,9.3c1-0.3,2,0.3,2.3,1.2c0.3,1-0.3,2-1.2,2.3C203.2,253.7,199.5,254.2,196.1,254.2z"/>
	</g>
</g>
</svg>
