<?xml version="1.0" encoding="utf-8"?>
<!-- Generator: Adobe Illustrator 26.2.1, SVG Export Plug-In . SVG Version: 6.00 Build 0)  -->
<svg version="1.1" id="Capa_1" xmlns="http://www.w3.org/2000/svg" xmlns:xlink="http://www.w3.org/1999/xlink" x="0px" y="0px"
	 viewBox="0 0 600 600" style="enable-background:new 0 0 600 600;" xml:space="preserve">
<style type="text/css">
	.st0{fill:#F7F5FF;}
	.st1{fill:#F74D76;}
	.st2{fill:#FCA397;}
	.st3{fill:#ADA4F7;}
	.st4{fill:#FFFFFF;}
	.st5{fill:#FFAF45;}
</style>
<g>
	<g>
		<path class="st0" d="M533,300c0,35.4-7.9,68.9-22,98.9c-4.5,9.7-9.8,19.1-15.7,28c-1,1.6-2,3.1-3.1,4.7
			c-6.9,10.2-14.7,19.7-23.2,28.7c-8.8,9.3-18.3,17.8-28.6,25.6c-1.3,1-2.7,2-4,3c-15.7,11.4-33,20.8-51.4,28
			c-0.1,0-0.2,0.1-0.4,0.1c-0.9,0.4-1.9,0.7-2.8,1.1c-9.6,3.6-19.6,6.6-29.8,9c-1.7,0.3-3.3,0.7-5,1c-15.1,3.1-30.8,4.7-46.9,4.7
			c-3.1,0-6.2,0-9.3-0.2c-0.5,0-1,0-1.5,0c-5.8-0.2-11.6-0.7-17.2-1.4c-1.8-0.2-3.7-0.4-5.5-0.7c-23.2-3.3-45.1-10.1-65.6-19.7
			c-1.9-0.8-3.7-1.8-5.6-2.7c-4.7-2.3-9.3-4.9-13.9-7.6c-3.2-1.9-6.4-3.9-9.5-5.9c-5.3-3.5-10.5-7.2-15.5-11.1c-1-0.8-2-1.5-2.9-2.4
			c-1.9-1.5-3.8-3.1-5.6-4.7c-1.5-1.2-2.9-2.5-4.3-3.8c-13.6-12.3-25.8-26.3-36.2-41.6c-0.2-0.3-0.5-0.7-0.7-1.1
			c-0.5-0.8-1-1.6-1.5-2.4C81,390.8,67,347.1,67,300C67,171.3,171.4,67,300,67C428.6,67,533,171.3,533,300z"/>
	</g>
	<g>
		<path class="st1" d="M212.3,289.2c0,12.4-4.6,22.5-10.3,22.5s-10.3-10.1-10.3-22.5s4.6-22.5,10.3-22.5S212.3,276.8,212.3,289.2z"
			/>
	</g>
	<g>
		<path d="M257,176.4c0,0,34.2-69.3,92.1-35.9c57.9,33.4,9.4,100.9,96.9,118.8c45.5,9.3,74,46.9,62.3,91.1
			c-11.4,42.9-62.2,45-62.2,45s-55.4,79.6-118.7,56.1s-92.7-60.8-87.5-120.6C245.2,271.1,257,176.4,257,176.4z"/>
	</g>
	<g>
		<path d="M195.3,237.4c0,0-36.8-52.2,35.7-94.8c72.5-42.6,126.5,13.7,127.5,44.3c1,30.6-16.2,45-16.2,45s7.7,66.2-56.1,62.6
			C222.5,290.9,195.3,237.4,195.3,237.4z"/>
	</g>
	<g>
		<g>
			<path class="st2" d="M292.2,283.8l2.1,53.6c0,0-9.1,15.8-40.3,19.5c-23.3,2.8-31.7-2.2-31.7-2.2l2.2-27.3l2.2-26.6l56.1-14.7
				L292.2,283.8z"/>
		</g>
	</g>
	<g>
		<g>
			<path d="M292,281.2c-0.1,1.5-0.6,3.2-1.4,5.2c-10.9,27.2-52.7,39.3-66.1,41l2.2-26.6L292,281.2z"/>
		</g>
	</g>
	<g>
		<g>
			<path class="st2" d="M210,179.3c0,0-25.5,68.3-13,105.1c12.5,36.9,46.3,29.1,66.4,20.8c20-8.4,28.8-21.4,28.8-21.4
				s19.4,5.4,31.2-13c11.8-18.4,2.8-38.4-8.3-42.4c-11.1-4.1-23.7,4.5-23.7,4.5l9.1-19.9C300.5,212.9,252.5,116.8,210,179.3z"/>
		</g>
	</g>
	<g>
		<path d="M216.4,260.7c-1.2,0-2.2-0.8-2.5-2.1c-4.1-22.7,4.7-34.9,5.1-35.4c0.8-1.1,2.4-1.3,3.5-0.5c1.1,0.8,1.3,2.4,0.5,3.5
			c-0.2,0.2-7.8,11.2-4.2,31.6c0.2,1.4-0.7,2.7-2,2.9C216.7,260.6,216.6,260.7,216.4,260.7z"/>
	</g>
	<g>
		<path d="M293.3,260.3c-0.9,0-1.7-0.5-2.2-1.3c-0.7-1.2-0.2-2.7,1-3.4l25.9-14.2c1.2-0.7,2.7-0.2,3.4,1c0.7,1.2,0.2,2.7-1,3.4
			L294.5,260C294.1,260.2,293.7,260.3,293.3,260.3z"/>
	</g>
	<g>
		<path d="M317.6,264.7c-0.6,0-1.1-0.2-1.6-0.6l-12.7-10.8c-1.1-0.9-1.2-2.5-0.3-3.5c0.9-1.1,2.5-1.2,3.5-0.3l12.7,10.8
			c1.1,0.9,1.2,2.5,0.3,3.5C319.1,264.4,318.4,264.7,317.6,264.7z"/>
	</g>
	<g>
		<path d="M195.3,237.4c0,0,3.9-20.7,23.3-44.4c19.4-23.8,19.4-23.8,19.4-23.8s0.8,42.1,21,58.7c20.1,16.7,32.4,4.9,32.4,4.9
			l33.5-34.2l-68.4-54C256.6,144.7,185,147.4,195.3,237.4z"/>
	</g>
	<g>
		<path class="st3" d="M384.6,517.1c-0.9,0.4-1.9,0.7-2.8,1.1c-25.5,9.6-53,14.8-81.8,14.8c-3.6,0-7.3-0.1-10.9-0.2
			c-43.2-2-83.4-15.7-117.3-38.2c-5.3-3.5-10.5-7.2-15.5-11.1c-4.4-3.5-8.8-7.1-12.9-10.9c-0.6-5.7-1.1-11.9-1.5-18.5
			c-1.4-24.8,6.7-49,15.7-67.7c7.6-15.9,20.3-28.5,36-35.9c5.3-2.6,11-4.5,17-5.8l15.6-3.4c0,0,114.7-10,135.5-0.5
			c0,0,0.1,0,0.3,0.1c1.8,0.9,2.8,1.9,2.9,3.2C365.9,356.3,376,443.6,384.6,517.1z"/>
	</g>
	<g>
		<path class="st3" d="M495.3,427c-1,1.6-2,3.1-3.1,4.7c-6.9,10.2-14.7,19.7-23.2,28.7c-23.3,24.6-51.9,44.1-84,56.6
			c-0.1,0-0.2,0.1-0.4,0.1c-0.9,0.4-1.9,0.7-2.8,1.1c-25.5,9.6-53,14.8-81.8,14.8c-3.1,0-6.2,0-9.3-0.2l71-192.1c0,0,0.1,0,0.3,0.1
			C366.5,342.5,452.9,358.2,495.3,427z"/>
	</g>
	<g>
		<path class="st2" d="M223.7,338.1l-20.2,8c0,0-3.9,40.1,43.7,38.9c49.9-1.2,86-48.2,86-48.2l-44-3.6L223.7,338.1z"/>
	</g>
	<g>
		<path class="st4" d="M244.9,387.5c-14.3,0-25.4-3.9-33-11.5c-12.2-12.2-10.9-29.4-10.9-30.1c0.1-1.4,1.3-2.4,2.7-2.3
			c1.4,0.1,2.4,1.3,2.3,2.7c0,0.2-1.1,15.7,9.5,26.2c7.7,7.7,19.8,11,35.9,9.8c49.8-3.9,79.4-46.5,79.7-46.9
			c0.8-1.1,2.3-1.4,3.5-0.7c1.1,0.8,1.4,2.3,0.7,3.5c-1.3,1.8-31.3,45-83.4,49.1C249.4,387.4,247.1,387.5,244.9,387.5z"/>
	</g>
	<g>
		<path d="M233.4,279.7c-1,0-2-0.6-2.4-1.7c-0.5-1.3,0.2-2.7,1.5-3.2c0.1-0.1,6.7-2.6,10.8-9.8c0.7-1.2,2.2-1.6,3.4-0.9
			c1.2,0.7,1.6,2.2,0.9,3.4c-5.1,8.9-13.1,11.9-13.5,12C233.9,279.7,233.6,279.7,233.4,279.7z"/>
	</g>
	<g>
		<path class="st5" d="M357.6,203.5c-1.4,0-2.5-1.2-2.5-2.5c1-52.2-42-68-43.8-68.6c-1.3-0.5-2-1.9-1.5-3.2c0.5-1.3,1.9-2,3.2-1.5
			c0.5,0.2,48.2,17.5,47.1,73.4C360.1,202.4,359,203.5,357.6,203.5z"/>
	</g>
	<g>
		<path class="st3" d="M193.5,350.4c0,0-12.2,150.2-12.2,150.2c-3.2-1.9-6.4-3.9-9.5-5.9c-5.3-3.5-10.5-7.2-15.5-11.1
			c-4.4-3.5-8.8-7.1-12.9-10.9c-13.6-12.3-25.8-26.3-36.2-41.6c-0.3-0.3-0.5-0.7-0.8-1.1c-0.5-0.8-1-1.6-1.5-2.4
			c11.4-13.9,25.5-29.8,39.8-42.3C179.1,354.9,193.5,350.4,193.5,350.4z"/>
	</g>
	<g>
		<g>
			<path class="st4" d="M176.9,382.3c-0.3,0.3-32.7,33.9-23.6,98.7c-1.9-1.5-3.8-3.1-5.6-4.7c-7.1-63.8,24.2-96.1,25.7-97.5
				c0.9-1,2.5-1,3.5,0C177.9,379.7,177.9,381.3,176.9,382.3z"/>
		</g>
	</g>
	<g>
		<path d="M202,207.4c-1.1,0-2.2-0.8-2.4-1.9c-0.3-1.3,0.5-2.7,1.9-3l12.9-2.9c1.4-0.3,2.7,0.5,3,1.9c0.3,1.3-0.5,2.7-1.9,3
			l-12.9,2.9C202.4,207.4,202.2,207.4,202,207.4z"/>
	</g>
	<g>
		<path d="M251.1,209.1c-0.3,0-0.5,0-0.8-0.1l-15.6-5.2c-1.3-0.4-2-1.9-1.6-3.2c0.4-1.3,1.9-2,3.2-1.6l15.6,5.2
			c1.3,0.4,2,1.9,1.6,3.2C253.1,208.4,252.1,209.1,251.1,209.1z"/>
	</g>
	<g>
		<path d="M206.5,232.6c-0.2,0-0.3,0-0.5,0c-1.4-0.2-2.3-1.5-2-2.9l1.8-9.7l-3.4-4c-0.9-1-0.8-2.6,0.3-3.5c1-0.9,2.6-0.8,3.5,0.3
			l4.2,4.9c0.5,0.6,0.7,1.3,0.6,2.1l-2,10.9C208.7,231.8,207.7,232.6,206.5,232.6z"/>
	</g>
	<g>
		<path d="M242.3,233.8c-0.2,0-0.3,0-0.5,0c-1.4-0.2-2.3-1.5-2-2.9l1.8-9.6l-3.9-3.7c-1-0.9-1-2.5-0.1-3.5c0.9-1,2.5-1,3.5-0.1
			l4.9,4.6c0.6,0.6,0.9,1.4,0.7,2.3l-2,10.9C244.5,232.9,243.4,233.8,242.3,233.8z"/>
	</g>
	<g>
		<path class="st1" d="M317.6,290.8c0,12.4-4.6,22.5-10.3,22.5c-5.7,0-10.3-10.1-10.3-22.5c0-12.4,4.6-22.5,10.3-22.5
			C313.1,268.4,317.6,278.4,317.6,290.8z"/>
	</g>
	<g>
		<g>
			<path class="st4" d="M213.3,372.4c-0.3,0.7-26.6,73.3-12.5,138.5c-1.9-0.8-3.7-1.8-5.6-2.7c-12.7-65.7,13.1-136.7,13.4-137.5
				c0.5-1.3,1.9-1.9,3.2-1.5C213.1,369.6,213.8,371.1,213.3,372.4z"/>
		</g>
	</g>
	<g>
		<g>
			<path class="st4" d="M271.9,531.3c-1.8-0.2-3.7-0.4-5.5-0.7c-5.9-20.2-15.4-66.7-10.6-145.7c0.1-1.3,1.1-2.4,2.6-2.3
				c1.4,0,2.4,1.2,2.3,2.6C255.9,465.8,266.3,512.7,271.9,531.3z"/>
		</g>
	</g>
	<g>
		<g>
			<path class="st4" d="M352,527.2c-1.7,0.3-3.3,0.7-5,1c-14.8-26.7-44.8-86.7-57.4-155.2c-0.2-1.3,0.6-2.6,2-2.9
				c1.3-0.2,2.6,0.6,2.9,2C307.2,441.2,337.7,501.5,352,527.2z"/>
		</g>
	</g>
	<g>
		<g>
			<path class="st4" d="M440.4,485.9c-1.3,1-2.7,2-4,3c-15.1-30.3-48.6-95.7-119.2-131.3c-1.2-0.6-1.7-2.1-1.1-3.3
				c0.6-1.2,2.1-1.7,3.3-1.1C390.6,389,424.8,454.7,440.4,485.9z"/>
		</g>
	</g>
</g>
</svg>
