<?xml version="1.0" encoding="utf-8"?>
<!-- Generator: Adobe Illustrator 26.2.1, SVG Export Plug-In . SVG Version: 6.00 Build 0)  -->
<svg version="1.1" id="Capa_1" xmlns="http://www.w3.org/2000/svg" xmlns:xlink="http://www.w3.org/1999/xlink" x="0px" y="0px"
	 viewBox="0 0 400 400" style="enable-background:new 0 0 400 400;" xml:space="preserve">
<style type="text/css">
	.st0{fill:#F7F5FF;}
	.st1{fill:#F74D76;}
	.st2{fill:#FFAF45;}
	.st3{fill:#FC8165;}
	.st4{fill:#FFFFFF;}
</style>
<g>
	<g>
		<path class="st0" d="M372.1,200c0,18-2.7,35.3-7.9,51.6c-7.8,24.9-21.1,47.3-38.5,65.9c-0.4,0.4-0.7,0.8-1.1,1.3
			c-0.5,0.6-1.1,1.1-1.6,1.6c-6.6,6.7-13.7,12.9-21.3,18.5c-1,0.8-2,1.5-3,2.2c-27.9,19.6-61.9,31.1-98.6,31.1
			c-7.5,0-14.9-0.5-22.1-1.4c-0.1,0-0.1,0-0.2,0c-17.7-2.3-34.6-7.3-50.2-14.6c-1.3-0.6-2.6-1.2-3.9-1.8
			C98.2,341.7,76.3,322.9,60,300c-1.4-2-2.8-4-4.1-6.1c-3.3-5-6.3-10.2-9.1-15.6c-12.1-23.5-18.9-50.1-18.9-78.4
			c0-95.1,77-172.1,172.1-172.1S372.1,104.9,372.1,200z"/>
	</g>
	<g>
		<g>
			<path class="st1" d="M325.7,317.5c-0.4,0.4-0.7,0.8-1.1,1.3c-0.5,0.6-1.1,1.1-1.6,1.6c-31.2,31.9-74.8,51.7-123,51.7
				c-7.5,0-14.9-0.5-22.1-1.4c-0.1,0-0.1,0-0.2,0c-17.7-2.3-34.6-7.3-50.2-14.6c1.5-62.4,0.8-116.9,0.8-117.9
				c0.6-1.3,29.5-8.7,67.9-10C256.7,226.3,307.8,260.4,325.7,317.5z"/>
		</g>
	</g>
	<g>
		<g>
			<path class="st1" d="M177.9,370.7c-0.1,0-0.1,0-0.2,0c-17.7-2.3-34.6-7.3-50.2-14.6c-1.3-0.6-2.6-1.2-3.9-1.8
				C98.2,341.7,76.3,322.9,60,300c33.2-45.4,60.2-58.7,68.4-61.8c1.7-0.7,2.5-0.9,2.5-0.9L177.9,370.7z"/>
		</g>
	</g>
	<g>
		<path class="st2" d="M200.7,127c0,0,39.7,1.9,42-36.2c2.4-40.6-35.1-44.5-51.1-28.1s-13,33.1-13,33.1s-11.1-10-23.2,2.3
			c-8.9,9-4.3,23.8-4.3,23.8s-20.5-0.8-18.6,17.1c1.9,17.9,14.7,27,14.7,27L200.7,127z"/>
	</g>
	<g>
		<g>
			<path class="st3" d="M164.3,197.2l4.1,42.2c0,0,8.8,11.4,33.7,11c18.5-0.3,24.6-5.1,24.6-5.1l-4.7-21.1l-4.6-20.6l-45.6-5.4
				L164.3,197.2z"/>
		</g>
	</g>
	<g>
		<g>
			<path d="M172,198.1c0.2,1.1,0.8,2.5,1.6,4c11.5,20.2,37.8,22.2,48.5,22.1l-4.6-20.6L172,198.1z"/>
		</g>
	</g>
	<g>
		<g>
			<path class="st3" d="M217.5,106.4c0,0,27.3,50.8,21.5,81c-5.9,30.3-33.2,27.8-49.8,23.4c-16.6-4.4-24.9-13.7-24.9-13.7
				s-14.6,6.3-25.9-6.8c-11.2-13.2-6.3-29.8,2-34.2c8.3-4.4,19,1,19,1l-9.3-14.6C150.2,142.5,177.5,62,217.5,106.4z"/>
		</g>
	</g>
	<g>
		<path d="M160,180.3c-0.3,0-0.6-0.1-0.9-0.2l-16.7-9.7c-0.9-0.5-1.2-1.6-0.7-2.5c0.5-0.9,1.6-1.2,2.5-0.7l16.7,9.7
			c0.9,0.5,1.2,1.6,0.7,2.5C161.2,180,160.6,180.3,160,180.3z"/>
	</g>
	<g>
		<path d="M146.3,181.8c-0.7,0-1.3-0.4-1.6-1c-0.5-0.9-0.1-2,0.8-2.5l8.5-4.4c0.9-0.5,2-0.1,2.5,0.8c0.5,0.9,0.1,2-0.8,2.5l-8.5,4.4
			C146.9,181.7,146.6,181.8,146.3,181.8z"/>
	</g>
	<g>
		<path d="M225,126.3c-0.4,0-0.7-0.1-1-0.3c-4.7-3.2-9-0.2-9.2,0c-0.8,0.6-2,0.4-2.6-0.4c-0.6-0.8-0.4-2,0.4-2.6
			c0.3-0.2,6.6-4.7,13.5,0c0.8,0.6,1.1,1.7,0.5,2.6C226.1,126,225.5,126.3,225,126.3z"/>
	</g>
	<g>
		<path d="M219.3,174.4c-0.1,0-0.2,0-0.4,0c-1-0.2-1.7-1.2-1.5-2.2c3-15.7-6.1-26-6.2-26.1c-0.7-0.8-0.6-1.9,0.1-2.6
			c0.8-0.7,1.9-0.6,2.6,0.1c0.4,0.5,10.5,11.7,7.1,29.3C220.9,173.8,220.2,174.4,219.3,174.4z"/>
	</g>
	<g>
		<path d="M225,151.2c-1,0-1.8-0.8-1.8-1.8l-0.4-10.1c0-1,0.7-1.9,1.8-1.9c1,0,1.9,0.7,1.9,1.8l0.4,10.1
			C226.9,150.3,226.1,151.2,225,151.2C225,151.2,225,151.2,225,151.2z"/>
	</g>
	<g>
		<path d="M197.3,153.9c-1,0-1.8-0.8-1.8-1.8l-0.4-10.1c0-1,0.7-1.9,1.8-1.9c1.1-0.1,1.9,0.7,1.9,1.8l0.4,10.1
			C199.2,153,198.4,153.9,197.3,153.9C197.3,153.9,197.3,153.9,197.3,153.9z"/>
	</g>
	<g>
		<path class="st2" d="M223.2,117.9c0,0-5.4-8-16-7.1c-10.5,1-16,9-16,9s6.4,17.3-7,28.1c-13.4,10.8-24.7,9.3-24.7,9.3l-10.8-2.7
			l-9.1-14.4l26.9-35.3l36.9-24.3L225,96.5L223.2,117.9z"/>
	</g>
	<g>
		<path d="M210.5,185.2c-3.6,0-9.9-1-13.8-7.6c-0.5-0.9-0.2-2,0.6-2.5c0.9-0.5,2-0.2,2.5,0.6c4.2,7.1,12.4,5.7,12.7,5.6
			c1-0.2,2,0.5,2.2,1.5c0.2,1-0.5,2-1.5,2.2C213.2,185,212.1,185.2,210.5,185.2z"/>
	</g>
	<g>
		<path class="st4" d="M202.7,250.8c-11.9,0-25.8-3-39.2-12.9c-0.8-0.6-1-1.8-0.4-2.6c0.6-0.8,1.8-1,2.6-0.4
			c32.7,24,67.8,5.3,68.1,5.1c0.9-0.5,2-0.2,2.5,0.7c0.5,0.9,0.2,2-0.7,2.5C235.3,243.4,221.3,250.8,202.7,250.8z"/>
	</g>
	<g>
		<path d="M184.2,132.3c-0.3,0-0.7-0.1-1-0.3c-0.9-0.5-1.1-1.7-0.6-2.5c5.1-8.1,12.9-7.4,16.4-6c0.9,0.4,1.4,1.5,1,2.4
			c-0.4,0.9-1.5,1.4-2.4,1c-0.3-0.1-7.2-2.8-11.8,4.5C185.4,132,184.8,132.3,184.2,132.3z"/>
	</g>
	<g>
		<g>
			<path class="st4" d="M301.7,338.8c-1,0.8-2,1.5-3,2.2l-7.3-14.7c-0.4-0.9-0.1-2,0.8-2.5c0.9-0.4,2-0.1,2.5,0.8L301.7,338.8z"/>
		</g>
	</g>
	<g>
		<path class="st4" d="M192.8,292.1c-67.1,0-104.4-24.2-104.8-24.5c-0.8-0.6-1.1-1.7-0.5-2.6c0.6-0.8,1.7-1.1,2.6-0.5
			c0.4,0.3,42.6,27.6,118.2,23.5c64-3.5,79.8-28,80-28.2c0.5-0.9,1.7-1.1,2.5-0.6c0.9,0.5,1.1,1.7,0.6,2.5
			c-0.7,1.1-16.7,26.4-82.9,30C203,292,197.8,292.1,192.8,292.1z"/>
	</g>
	<g>
		<path class="st4" d="M200.8,334.2c-78.9,0-134.4-39.2-135-39.6c-0.8-0.6-1-1.7-0.4-2.6c0.6-0.8,1.7-1,2.6-0.4
			c0.6,0.4,57.4,40.5,137.7,38.9c79.8-1.6,108-38.1,108.3-38.5c0.6-0.8,1.8-1,2.6-0.4c0.8,0.6,1,1.8,0.4,2.6
			c-1.2,1.6-29.4,38.3-111.2,39.9C204,334.2,202.4,334.2,200.8,334.2z"/>
	</g>
</g>
</svg>
